<?xml version="1.0" encoding="UTF-8"?>
<svg id="Layer_1" data-name="Layer 1" xmlns="http://www.w3.org/2000/svg" viewBox="0 0 1500 1000">
  <defs>
    <style>
      .cls-1 {
        fill: #673521;
      }

      .cls-1, .cls-2, .cls-3, .cls-4, .cls-5, .cls-6, .cls-7, .cls-8, .cls-9, .cls-10, .cls-11, .cls-12, .cls-13, .cls-14, .cls-15, .cls-16 {
        stroke-width: 0px;
      }

      .cls-2 {
        fill: #0c1617;
      }

      .cls-3 {
        fill: #f7f4f0;
      }

      .cls-4 {
        fill: #1a2d32;
      }

      .cls-5 {
        fill: #9e3736;
      }

      .cls-6 {
        fill: #8e786b;
      }

      .cls-7 {
        fill: #fbfbfb;
      }

      .cls-8 {
        fill: #ced8dd;
      }

      .cls-9 {
        fill: #431e11;
      }

      .cls-10 {
        fill: #c7893b;
      }

      .cls-11 {
        fill: #f8f1e4;
      }

      .cls-12 {
        fill: #2e516b;
      }

      .cls-13 {
        fill: #f6e5c9;
      }

      .cls-14 {
        fill: #30170f;
      }

      .cls-15 {
        fill: #0d0d0c;
      }

      .cls-16 {
        fill: #052d2a;
      }
    </style>
  </defs>
  <rect class="cls-3" x="-10.89" y="-7.26" width="1521.78" height="1014.52"/>
  <g>
    <g>
      <g>
        <path class="cls-16" d="M764.86,379.84h13.17c5.59,0,9.87,1.46,12.85,4.38,2.98,2.92,4.47,7.21,4.47,12.89v9.4c0,6.42-2.1,10.46-6.28,12.1,1.89.43,3.49,1.54,4.79,3.33,1.3,1.78,1.96,4.15,1.96,7.1v3.21c0,10.18-5.26,15.27-15.78,15.27h-15.17c-1.65,0-2.47-.82-2.47-2.47v-62.74c0-1.64.82-2.47,2.47-2.47ZM774.12,390.41v23.55h3.49c2.3,0,3.94-.61,4.93-1.82.99-1.21,1.49-3.33,1.49-6.38v-7.26c0-2.86-.53-4.92-1.58-6.19-1.06-1.27-2.73-1.91-5.03-1.91h-3.3ZM774.12,424.43v12.52h5.12c1.83,0,3.15-.36,3.96-1.09.81-.73,1.21-2.15,1.21-4.26v-1.35c0-3.88-1.82-5.82-5.45-5.82h-4.84Z"/>
        <path class="cls-16" d="M821.66,425.31h-2c-3.57,0-5.35,1.78-5.35,5.35v.65c0,3.94,1.69,5.91,5.07,5.91s4.93-2,4.93-6v-.88c0-1.58.82-2.37,2.47-2.37h6.52c1.64,0,2.47.79,2.47,2.37v1.44c0,5.03-1.43,9.04-4.28,12.05-2.86,3.01-6.92,4.52-12.19,4.52s-9.72-1.52-12.59-4.56c-2.87-3.04-4.3-7.1-4.3-12.19v-1.16c0-6.79,2.51-10.63,7.54-11.5-2.3-.78-4.11-2.47-5.45-5.07-1.33-2.61-2-6-2-10.19v-3.54c0-6.86,1.3-12.1,3.91-15.73,2.61-3.63,6.93-5.45,12.99-5.45,5.46,0,9.53,1.68,12.19,5.03,2.67,3.35,4,8.01,4,13.96v9.36c0,1.64-.82,2.47-2.47,2.47h-7.07c-1.58,0-2.37-.82-2.37-2.47v-8.89c0-5.21-1.46-7.82-4.37-7.82-1.71,0-2.93.64-3.68,1.91s-1.12,3.48-1.12,6.61v5.49c0,3.51.42,5.94,1.26,7.31.84,1.37,2.39,2.05,4.65,2.05h1.26c1.64,0,2.47.82,2.47,2.47v6.52c0,1.58-.82,2.37-2.47,2.37Z"/>
        <path class="cls-16" d="M860.73,378.96c5.4,0,9.63,1.58,12.68,4.72,3.06,3.15,4.58,7.78,4.58,13.89v47.47c0,.9-.19,1.54-.58,1.91s-1.02.56-1.88.56h-7.07c-1.65,0-2.47-.82-2.47-2.47v-46.26c0-3.1-.41-5.24-1.23-6.42-.82-1.18-2.16-1.77-4.03-1.77s-3.25.59-4.07,1.77c-.82,1.18-1.23,3.32-1.23,6.42v46.26c0,.9-.19,1.54-.58,1.91-.39.37-1.03.56-1.93.56h-7.03c-1.65,0-2.47-.82-2.47-2.47v-47.47c0-6.11,1.52-10.74,4.56-13.89,3.04-3.15,7.29-4.72,12.75-4.72Z"/>
        <path class="cls-16" d="M885.5,379.84h28.81c.9,0,1.54.19,1.91.56s.56,1.01.56,1.91v6.56c0,1.65-.82,2.48-2.47,2.51h-8.42v53.66c0,1.65-.82,2.47-2.47,2.47h-7.12c-1.58,0-2.39-.82-2.42-2.47v-53.66h-8.38c-1.65,0-2.47-.84-2.47-2.51v-6.56c0-1.64.82-2.47,2.47-2.47Z"/>
        <path class="cls-16" d="M938.67,378.96c5.71,0,10.06,1.74,13.06,5.21,2.99,3.48,4.49,8.25,4.49,14.34v30.35c0,6.11-1.49,10.89-4.47,14.33-2.98,3.45-7.34,5.17-13.08,5.17s-10.15-1.73-13.15-5.19c-3-3.46-4.49-8.23-4.49-14.31v-30.35c0-6.11,1.5-10.9,4.49-14.36,2.99-3.46,7.38-5.19,13.15-5.19ZM938.67,390.69c-2.05,0-3.5.72-4.35,2.16-.85,1.44-1.28,3.75-1.28,6.91v27.83c0,3.17.43,5.48,1.3,6.96.87,1.47,2.31,2.21,4.33,2.21s3.37-.74,4.24-2.21,1.3-3.79,1.3-6.96v-27.83c0-3.1-.43-5.39-1.3-6.86s-2.28-2.21-4.24-2.21Z"/>
      </g>
      <path class="cls-16" d="M779.62,462.52c5.34,0,9.47,1.74,12.4,5.21,2.93,3.48,4.4,8.13,4.4,13.96v8.19c0,1.58-.82,2.37-2.47,2.37h-6.89c-1.65,0-2.47-.79-2.47-2.37v-7.73c0-5.52-1.72-8.28-5.17-8.28-1.71,0-2.97.71-3.79,2.14-.82,1.43-1.23,3.77-1.23,7.03v4.19c0,3.94.52,6.72,1.56,8.33,1.04,1.61,2.8,2.42,5.28,2.42h20.8c1.64,0,2.47.84,2.47,2.51v5.49c0,1.65-.82,2.48-2.47,2.51h-5.17v6.66c0,1.77.19,3.14.58,4.1.39.96,1.28,1.44,2.68,1.44.62,0,1.5-.12,2.65-.37,1.52-.31,2.28.22,2.28,1.58v6.61c0,.71-.11,1.21-.33,1.49-.22.28-.68.57-1.4.88-1.4.56-2.92.84-4.56.84-4.25,0-7.17-1.46-8.75-4.38-2.48,3.04-6.05,4.56-10.7,4.56-5.21,0-9.34-1.51-12.38-4.52-3.04-3.01-4.56-7.06-4.56-12.15v-1.35c0-6.48,2.44-10.43,7.31-11.82-2.05-.43-3.75-1.88-5.1-4.33-1.35-2.45-2.02-5.62-2.02-9.49v-6.19c-.03-13.03,5.65-19.55,17.03-19.55ZM779.52,520.79c1.77,0,3.23-.53,4.37-1.58,1.15-1.05,1.72-2.68,1.72-4.89v-5.82h-6c-3.63,0-5.43,1.91-5.4,5.73v.56c-.03,4,1.74,6,5.31,6Z"/>
      <g>
        <path class="cls-16" d="M764.86,544.57h22.2c.9,0,1.54.19,1.91.56.37.37.56,1.01.56,1.91v6.56c0,1.65-.82,2.48-2.47,2.51h-12.66v22.57h10.84c1.64,0,2.47.82,2.47,2.47v6.52c0,1.58-.82,2.37-2.47,2.37h-10.84v19.73c0,.9-.19,1.54-.58,1.91-.39.37-1.03.56-1.93.56h-7.03c-1.65,0-2.47-.82-2.47-2.47v-62.74c0-1.64.82-2.47,2.47-2.47Z"/>
        <path class="cls-16" d="M829.8,595.49v14.29c0,.9-.19,1.54-.56,1.91-.37.37-1.01.56-1.91.56h-6.93c-.9,0-1.54-.19-1.93-.58-.39-.39-.58-1.02-.58-1.89v-12.89c0-2.48-.44-4.23-1.33-5.24-.88-1.01-2.44-1.51-4.68-1.51h-3.4v19.64c0,.9-.19,1.54-.58,1.91-.39.37-1.03.56-1.93.56h-7.03c-1.65,0-2.47-.82-2.47-2.47v-62.74c0-1.64.82-2.47,2.47-2.47h13.64c5.77,0,10.07,1.61,12.89,4.82,2.82,3.21,4.23,7.73,4.23,13.57v8.8c0,6.11-2,10.27-6,12.47,4.06,1.46,6.1,5.21,6.1,11.26ZM808.49,578.59h3.49c1.95,0,3.41-.64,4.37-1.91.96-1.27,1.44-3.34,1.44-6.19v-6.1c0-2.92-.47-5.03-1.42-6.33-.95-1.3-2.41-1.95-4.4-1.95h-3.49v22.48Z"/>
        <path class="cls-16" d="M840.95,544.57h7.03c.9,0,1.54.19,1.93.56.39.37.58,1.01.58,1.91v62.74c0,.9-.19,1.54-.58,1.91s-1.03.56-1.93.56h-7.03c-1.65,0-2.47-.82-2.47-2.47v-62.74c0-1.64.82-2.47,2.47-2.47Z"/>
        <path class="cls-16" d="M878.2,590.04h-2c-3.57,0-5.35,1.78-5.35,5.35v.65c0,3.94,1.69,5.91,5.07,5.91s4.93-2,4.93-6v-.88c0-1.58.82-2.37,2.47-2.37h6.52c1.64,0,2.47.79,2.47,2.37v1.44c0,5.03-1.43,9.04-4.28,12.05-2.86,3.01-6.92,4.52-12.19,4.52s-9.72-1.52-12.59-4.56c-2.87-3.04-4.3-7.1-4.3-12.19v-1.16c0-6.79,2.51-10.63,7.54-11.5-2.3-.78-4.11-2.47-5.45-5.07-1.33-2.61-2-6-2-10.19v-3.54c0-6.86,1.3-12.1,3.91-15.73,2.61-3.63,6.93-5.45,12.99-5.45,5.46,0,9.53,1.68,12.19,5.03,2.67,3.35,4,8.01,4,13.96v9.36c0,1.64-.82,2.47-2.47,2.47h-7.07c-1.58,0-2.37-.82-2.37-2.47v-8.89c0-5.21-1.46-7.82-4.37-7.82-1.71,0-2.93.64-3.68,1.91-.74,1.27-1.12,3.48-1.12,6.61v5.49c0,3.51.42,5.94,1.26,7.31.84,1.37,2.39,2.05,4.65,2.05h1.26c1.64,0,2.47.82,2.47,2.47v6.52c0,1.58-.82,2.37-2.47,2.37Z"/>
        <path class="cls-16" d="M917.26,543.69c5.4,0,9.63,1.58,12.68,4.72,3.06,3.15,4.58,7.78,4.58,13.89v47.47c0,.9-.19,1.54-.58,1.91s-1.02.56-1.88.56h-7.07c-1.65,0-2.47-.82-2.47-2.47v-46.26c0-3.1-.41-5.24-1.23-6.42-.82-1.18-2.16-1.77-4.03-1.77s-3.25.59-4.07,1.77c-.82,1.18-1.23,3.32-1.23,6.42v46.26c0,.9-.19,1.54-.58,1.91-.39.37-1.03.56-1.93.56h-7.03c-1.65,0-2.47-.82-2.47-2.47v-47.47c0-6.11,1.52-10.74,4.56-13.89,3.04-3.15,7.29-4.72,12.75-4.72Z"/>
        <path class="cls-16" d="M946.04,544.57h14.85c5.71,0,10,1.68,12.87,5.05,2.87,3.37,4.3,8.2,4.3,14.5v28.58c0,6.3-1.43,11.13-4.28,14.5-2.86,3.37-7.15,5.05-12.89,5.05h-14.85c-1.65,0-2.47-.82-2.47-2.47v-62.74c0-1.64.82-2.47,2.47-2.47ZM955.49,555.83v45.15h4.47c2.17,0,3.73-.73,4.68-2.19.95-1.46,1.42-3.74,1.42-6.84v-27.09c0-3.1-.47-5.38-1.42-6.84-.95-1.46-2.51-2.19-4.68-2.19h-4.47Z"/>
        <path class="cls-16" d="M1000.66,543.69c5.09,0,8.97,1.54,11.64,4.63,2.67,3.09,4,7.14,4,12.17v9.45c0,1.65-.84,2.47-2.51,2.47h-6.66c-1.65,0-2.47-.82-2.47-2.47v-8.52c0-2.3-.32-3.95-.95-4.96-.64-1.01-1.68-1.51-3.14-1.51-2.73,0-4.1,2.06-4.1,6.19,0,3.04,1.06,6.17,3.19,9.38,2.12,3.21,4.44,6.01,6.96,8.4,2.51,2.39,4.83,5.22,6.96,8.49,2.13,3.27,3.19,6.46,3.19,9.56,0,5.21-1.33,9.2-4,11.96-2.67,2.76-6.64,4.14-11.92,4.14s-9.31-1.68-12.1-5.05c-2.79-3.37-4.19-7.78-4.19-13.24v-3.63c0-1.64.82-2.47,2.47-2.47h6.66c1.64,0,2.47.82,2.47,2.47v2.09c0,3.04.35,5.24,1.05,6.59s1.89,2.03,3.56,2.03c1.52,0,2.6-.38,3.23-1.14.64-.76.95-2.01.95-3.75s-.68-3.62-2.05-5.56c-1.37-1.94-3.03-3.89-5-5.86-1.97-1.97-3.96-4.06-5.96-6.28-2-2.22-3.69-4.92-5.05-8.1-1.37-3.18-2.05-6.52-2.05-10.03,0-5.58,1.33-9.89,4-12.92,2.67-3.03,6.61-4.54,11.82-4.54Z"/>
      </g>
    </g>
    <g>
      <path class="cls-7" d="M623.09,490.02c-15.75-3.08-33.39-1.6-46.83,7.81-1.36.94-2.87,1.85-4.09,2.96-15.21,13.82-17.94,39.72-6.32,56.5,19.06,27.55,63.13,28.55,84.74,3.53,19.45-22.52,10.64-63.35-27.5-70.8ZM623.09,490.02c-15.75-3.08-33.39-1.6-46.83,7.81-1.36.94-2.87,1.85-4.09,2.96-15.21,13.82-17.94,39.72-6.32,56.5,19.06,27.55,63.13,28.55,84.74,3.53,19.45-22.52,10.64-63.35-27.5-70.8ZM623.09,490.02c-15.75-3.08-33.39-1.6-46.83,7.81-1.36.94-2.87,1.85-4.09,2.96-15.21,13.82-17.94,39.72-6.32,56.5,19.06,27.55,63.13,28.55,84.74,3.53,19.45-22.52,10.64-63.35-27.5-70.8ZM623.09,490.02c-15.75-3.08-33.39-1.6-46.83,7.81-1.36.94-2.87,1.85-4.09,2.96-15.21,13.82-17.94,39.72-6.32,56.5,19.06,27.55,63.13,28.55,84.74,3.53,19.45-22.52,10.64-63.35-27.5-70.8ZM623.09,490.02c-15.75-3.08-33.39-1.6-46.83,7.81-1.36.94-2.87,1.85-4.09,2.96-15.21,13.82-17.94,39.72-6.32,56.5,19.06,27.55,63.13,28.55,84.74,3.53,19.45-22.52,10.64-63.35-27.5-70.8ZM725.29,471.99c-2.07-5.86-7.2-15.47-7.05-16.35.09-.65,5.48-3.59,8.92-9.3,6.99-11.57,6.52-23.95,1.11-36.05-14.72-32.89-65.54-37.56-75.63,2.42-27.01-7.02-59.26-7.31-86.24,0-5.77-17.54-18.74-29.18-37.9-28.63-36.73,1.06-58.34,48.96-28.81,71.55-11.83,19.87-15.58,42.28-16.35,65.05-.8,23.38,3.12,39.04,17.83,57.6,29.03,36.6,78.67,45.29,122.84,42.19,45.32-3.16,94.92-24.39,108.34-71.91,6.12-21.7.43-55.34-7.06-76.57ZM494.49,435.75c2.56,1.25,3.18,2.3,4.83-.37-.73-2.48-1.25-3.36,1.67-3.72,4.33,8.99,9.55,16.49,20.64,14.48-1.57,1.64-3.52,4.1-4.84,5.95-2.65-.03-4.23.02-6.31,1.48.23-1.13-2.25-1.27-5.58-3.35-5.15-3.22-8.9-8.61-10.4-14.48ZM643.9,611.36c.35-4.03,1.62-8.02.94-12.08-2.88,5.24-5.75,11.15-11.52,13.74q-.28-.46-.57-.92c5.52-19.33-1.22-2.25-8.73.18-6.48,2.11.68-2.67,0-7.81-1.22,3.02-13.91,11.04-14.68,8.36,2.56-3.96,2.85-9.64,3.72-12.45-.02-.68-.56.26-1.11.74-3.41,5.77-7.77,13.56-15.42,13.02-4.86-1.25.73-8.71,2.05-12.26.03-.11-.05-.26,0-.39-.03-4.55-8.99,10.54-11.34,11.52-5.66,2.39-4.7-8.55-4.66-11.52-2.34,3.15-2.7,7.17-3.9,10.78-3.87-.56-3.87-5.06-5.01-8.55-1.34-4.13-.49-1.62-3.35,6.51q-1.39-.09-2.78-.19c-2.93-1.57-1.9-10.86-3.53-12.65-2.34,6.91-3.22,18.43-7.8,3.72-1.34-2.75-1.91-5.64-2.79-8.55q-.65,6.23-1.3,12.45c-7.77-.69-7.4-11.57-8.75-17.65q-1.48,6.88-2.96,13.74c-5.17-1.97-7.56-7.14-10.23-11.52.66-.17.91.71,1.48.19.69-.62,6.23-14.79,7.99-16.91q-.19,7.25-.37,14.5,5.58-7.25,11.15-14.5c1.59,7.65,4.63,15.22,6.14,22.86.03.2-1.16,3.32.74,1.85,1.34-6.17,2.78-12.35,2.04-18.76,5.72,2.27,2.78,10.09,2.42,14.85,1.5-2.68,4.44-5.15,6.14-7.81.31.2-.02,1.19.56,2.61,2.58,6.46,7.43,5.95,13,7.81-.43-7.3,1.94-4.1,4.46-8.36-.31-1.17-12.02-3.5-18.96-14.5q1.13-.65,2.24-1.3c-3.38-3.9-9.5-13.91-11.15-18.59-2.55-7.25-3.35-16.15-2.61-23.78.31-3.15.96-6.65,1.87-9.67.82-2.73,2.21-6.12,3.72-8.55.09-.14.99-.35,1.11-.56.32-.48,1.53-3.13,1.87-3.53,1.64-1.96,5.98-5,7.99-7.44q.09.37.19.74c-15.21,13.82-17.94,39.72-6.32,56.5,19.06,27.55,63.13,28.55,84.74,3.53,19.45-22.52,10.64-63.35-27.5-70.8.59-2.34-9.96-.54-8.18-3.35,18.77.94,25.22,7.79,26.58,7.44.69-.19.45-1.1.56-1.5,2.9,4.55,8.38,7.26,11.89,11.71.17.22-.88.02,2.61,4.47.48.62.31,2.79,2.73,3.46-.63.26,1.47,6.4,2.47,9.36.66,1.96.89,4.69,1.85,6.31,1.14,10.04-.15,18.05-4.46,27.13-2.07,4.38-10.49,17-13.74,20.45,1.14-.06,5.78-2.87,5.94-1.68-3.86,6.63-8.16,12.94-13.37,18.59,5.24-2.45,10.41-8.9,16.54-5.38,5.57,3.18,1.11,8.24,3.16,8.55-2.34,8.31-4.83,13.14-13.76,15.79ZM720.09,556.17c-1.34-1.48-1.03,3.86-4.46,10.21-2.33,4.32-6.45,7.56-8.18,12.28q-.37-.19-.74-.39c-.86-7.11-.23.34-6.88,7.25q-.74-2.59-1.5-5.2c-.85,5.12-3.75,8.85-7.43,12.26-1.93-6.62-1.19,1.45-10.03,6.32-.56-.43.19-1.94.19-3.72q.19,1.2.37,2.41c1.96-3.22,2.08-7.28,2.61-10.95.14-1.02.97-3.38,1.11-5.03.69-8.19-1.11-14.87,3.35-.37,1.42,4.66.91,8.98,2.59,5.95,3.38-6.02,2.93-18.51,3.53-25.47q1.4,6.97,2.79,13.94c10.21-20.35,1-34.51,11.52-7.43,4.37-11.4-2.73-21.72-1.67-22.12,4.41,4.36,6.79,8.04,8.18,14.13.45-1.48,2.36-5.21,2.41-5.58.37-2.44-.34-4.7-.74-7.05-1.97-11.66-10.06-19.81,1.5-7.43.23.11,1.06.68,1.11.74,4.61,6.48,3.64,23.57.37,15.24ZM720.83,538.33c.08-.25-.34,0,0-1.11q-3.16-7.16-6.31-14.31,4.27,3.07,8.55,6.14h.37c.06.43,2.41,3.25,3.35,7.99,1.77,15.98,1.16,14.92-5.95,1.3ZM728.82,533.87q-2.31-3.35-4.64-6.69c-.03-4.69-2.84-9.84-5.57-13.93q3.05,1.39,6.12,2.78c.54-.23-4.98-13.47-.56-8.18.4.48,5.17,10.92,4.27,11.52-6.31-5.48,1.22,4.33.37,14.5ZM623.09,490.02c-15.75-3.08-33.39-1.6-46.83,7.81-1.36.94-2.87,1.85-4.09,2.96-15.21,13.82-17.94,39.72-6.32,56.5,19.06,27.55,63.13,28.55,84.74,3.53,19.45-22.52,10.64-63.35-27.5-70.8ZM623.09,490.02c-15.75-3.08-33.39-1.6-46.83,7.81-1.36.94-2.87,1.85-4.09,2.96-15.21,13.82-17.94,39.72-6.32,56.5,19.06,27.55,63.13,28.55,84.74,3.53,19.45-22.52,10.64-63.35-27.5-70.8ZM623.09,490.02c-15.75-3.08-33.39-1.6-46.83,7.81-1.36.94-2.87,1.85-4.09,2.96-15.21,13.82-17.94,39.72-6.32,56.5,19.06,27.55,63.13,28.55,84.74,3.53,19.45-22.52,10.64-63.35-27.5-70.8ZM623.09,490.02c-15.75-3.08-33.39-1.6-46.83,7.81-1.36.94-2.87,1.85-4.09,2.96-15.21,13.82-17.94,39.72-6.32,56.5,19.06,27.55,63.13,28.55,84.74,3.53,19.45-22.52,10.64-63.35-27.5-70.8Z"/>
      <g>
        <path class="cls-1" d="M724.55,507.85h-.37c-4.43-5.29,1.1,7.94.56,8.18q-3.07-1.39-6.12-2.78c2.73,4.09,5.54,9.24,5.57,13.93,0,.11-.85,1.14-.74,1.87h-.37q-4.27-3.07-8.55-6.14,3.15,7.16,6.31,14.31c-.34,1.11.08.86,0,1.11-.05.15-.62-.8-1.11,2.61-.05-.06-.88-.63-1.11-.74-11.55-12.37-3.47-4.23-1.5,7.43.4,2.34,1.11,4.61.74,7.05-.05.37-1.96,4.1-2.41,5.58-1.39-6.09-3.76-9.76-8.18-14.13-1.06.4,6.03,10.72,1.67,22.12-10.52-27.07-1.31-12.91-11.52,7.43q-1.39-6.97-2.79-13.94c-.6,6.96-.15,19.45-3.53,25.47-1.68,3.02-1.17-1.3-2.59-5.95-4.46-14.5-2.65-7.82-3.35.37-.14,1.65-.97,4.01-1.11,5.03q-3.25-4.66-6.51-9.3c-.93.51-.34,9.27-1.67,7.62q-1.59-6.03-3.16-12.08-4.74,11.15-9.49,22.3c-2.42-4.06-2.81-8.65-4.27-13.02.06,4.18-.54,8.5-.56,12.65-.17.03-.73.69-.74.74-2.05-.31,2.41-5.37-3.16-8.55-6.12-3.52-11.29,2.93-16.54,5.38,5.21-5.65,9.52-11.95,13.37-18.59-.15-1.19-4.8,1.62-5.94,1.68,3.25-3.45,11.68-16.07,13.74-20.45,9.47-3.78,20.99-17.97,22.49-18.94,2.75-1.79,6.59-1.93,8.92-3.35,3.35-2.04,15.92-15.93,16.92-23.97,1.65-13.48-9.05-47.52-16.37-59.48-3.22-5.28-9.81-12.96-14.85-16.54q-.19-.28-.37-.56c5.49.99,13.11,7.96,17.83,12.08.97.85,2.24,2.41,3.72,3.72,4.04,3.56,3.96,5.92,9.3,4.83,1.23,1.34,1.05,1.77,1.11,1.87-2.85-.56,1.68,5.77,2.59,7.99,2.17,5.21,3.7,10.78,5.95,15.98,1.73,3.96,4.18,7.73,5.95,11.71.83,1.88,1.56,3.5,1.85,5.57-2.88-2.34-15.52-8.96-5.38-.37.15.12.49.37.93.66.14.09.28.19.43.29.91.6,2.07,1.37,3.04,2.05.19.11.35.23.51.34.28.19.51.35.69.49.06.05.12.09.19.14.22.15.37.28.46.37.05.05.09.08.12.12.09.08.12.14.12.17-.05.39-1.05-.11-1.11.56-.02.12,0,.26,0,.39q-2.33-1.13-4.64-2.24c-2.05.31,6.05,7.37,5.01,8.92Z"/>
        <path class="cls-1" d="M585.91,587.95c-2.51,4.26-4.89,1.06-4.46,8.36-5.57-1.85-10.43-1.34-13-7.81-.57-1.42-.25-2.41-.56-2.61-1.7,2.65-4.64,5.12-6.14,7.81.35-4.77,3.3-12.59-2.42-14.85.74,6.4-.69,12.59-2.04,18.76-1.9,1.47-.71-1.65-.74-1.85-1.51-7.64-4.55-15.21-6.14-22.86q-5.57,7.25-11.15,14.5.19-7.25.37-14.5c-1.76,2.11-7.3,16.29-7.99,16.91-.57.52-.82-.36-1.48-.19-.4-.65-.52-1.57-.74-.74-4.33-21.49,1.47-33.24-7.43-7.62q-.56.09-1.11.18c-.45-1.17-.94-2.81-1.87-3.72-.54-7.85-2.17-15.67-1.85-23.6q-2.7,6.05-5.4,12.08c.03-18.9,2.22-19.85-5.2-1.11-.45-2.22-3.53-6.12-3.9-7.62-2.04-8.22,10.04-22.89,1.11-13.37-1.67,1.77-7.74,10.94-6.32,2.41.74-4.33,5.17-11.03,7.43-15.05-9.52,5.77-9.53,12.74-7.8-2.96.35-3.16-.76-3.16-.74-3.35.26-2.17,6.29-10.44,3.9-9.86-5.43,4.49-3.9,3.19-5.38,2.24-.37-.25.72-1.37-1.5.37-1.85-.94,5.8-9.1,5.77-14.13-1.82,1.06-3.59,2.28-5.38,3.35-.32.19-1.23.34-1.87.74-.69-1.45,4.03-6.34,5.95-9.47,1.11-1.84,1.03-2.65,1.11-2.79.73-1.37,3.73-2.44.37-2.98,3.12-9.56,12.48-33.5,17.46-40.51,1.33-1.85,3.27-4.32,4.84-5.95.74-.77,2.1-1.79,2.98-2.59,2.08-1.93,18.83-14.33,20.25-14.13.11.02.32.77,1.67,1.48-16.78,9.95-26.07,26.96-31.59,45.16-3.64,12.03-8.31,31.25-2.24,42.74,5.61,10.6,14.18,10.92,15.05,11.34,8.25,3.92,19.73,18.26,30.29,23.42,1.65,4.67,7.77,14.68,11.15,18.59q-1.11.65-2.24,1.3c6.94,11,18.65,13.33,18.96,14.5Z"/>
        <path class="cls-9" d="M519.02,577.73c.23,3.28.85,8.43-.19,8.92-4.17-3.75-7.07-8.37-7.99-13.94l-2.42,2.42c-3.31-2.34-7.19-8.69-8.36-12.45-2.55-8.18,1.27-10.36-4.46-5.2-.84-2.86-.89-5.8-.74-8.73,1.75-.08-.68-2.8,2.6-2.23-1.43,8.52,4.65-.64,6.32-2.42,8.93-9.51-3.15,5.16-1.12,13.38.37,1.49,3.46,5.4,3.9,7.62,7.43-18.73,5.24-17.78,5.2,1.12q2.69-6.04,5.39-12.08c-.32,7.93,1.31,15.75,1.86,23.6Z"/>
        <path class="cls-9" d="M516.78,452.1c-4.98,7-14.35,30.94-17.46,40.51-3.79-.6-5.11,3.08-5.2-1.48-.09-4.2,11.15-33.87,16.35-37.54,2.08-1.47,3.66-1.51,6.31-1.48Z"/>
        <path class="cls-14" d="M497.46,546.51c-3.28-.57-.85,2.15-2.6,2.23.35-6.76,3.27-7.49-3.35-.56.03-2.94-.06-6.01.37-8.92,1.47-9.87,7.03-15.04-3.35-2.6.34-6.85,3.09-13.18,6.32-19.14,1.49.97-.04,2.25,5.39-2.23,2.38-.59-3.64,7.68-3.9,9.85-.02.18,1.09.19.74,3.35-1.74,15.71-1.71,8.74,7.81,2.97-2.28,4.02-6.7,10.72-7.43,15.05Z"/>
        <path class="cls-9" d="M529.42,588.88c.46,2.27,1.9,6.32.93,6.32-6.2-4.98-6.93-6.88-9.48-13.75l1.12-.19c8.91-25.62,3.11-13.87,7.43,7.62Z"/>
        <path class="cls-9" d="M728.82,533.87q-2.31-3.35-4.64-6.69c-.03-4.69-2.84-9.84-5.57-13.93q3.05,1.39,6.12,2.78c.54-.23-4.98-13.47-.56-8.18.4.48,5.17,10.92,4.27,11.52-6.31-5.48,1.22,4.33.37,14.5Z"/>
        <path class="cls-9" d="M707.83,454.7c5.52,7.65,12.91,26.11,14.5,35.68-1.76-3.97-4.22-7.74-5.95-11.71-2.26-5.19-3.77-10.76-5.95-15.98-.92-2.21-5.45-8.54-2.6-7.99Z"/>
        <path class="cls-9" d="M720.83,538.33c.08-.25-.34,0,0-1.11q-3.16-7.16-6.31-14.31,4.27,3.07,8.55,6.14h.37c.06.43,2.41,3.25,3.35,7.99,1.77,15.98,1.16,14.92-5.95,1.3Z"/>
        <path class="cls-9" d="M493.37,517.89c-.47.37-4.38,5.04-4.65,4.83-1.31-1,3.99-13.6,5.02-15.61,1.8-1.07,3.57-2.29,5.39-3.35.03,5.02-7.62,13.18-5.76,14.12Z"/>
        <path class="cls-9" d="M499.32,492.61c3.37.54.35,1.59-.37,2.97-1.85.76-4.79,3.17-5.95,3.72-8.84,4.22.81-5.04,1.12-8.18.09,4.57,1.41.88,5.2,1.49Z"/>
        <path class="cls-9" d="M498.95,495.59c-.07.13,0,.96-1.12,2.79-1.91,3.14-6.64,8.03-5.95,9.48-1.26.82-2.22,2.18-3.53,2.97-.56-4.32,3.47-7.58,4.65-11.52,1.15-.55,4.1-2.95,5.95-3.72Z"/>
        <path class="cls-9" d="M659.14,555.05c-2.07,4.38-10.49,17-13.74,20.45,1.14-.06,5.78-2.87,5.94-1.68-3.86,6.63-8.16,12.94-13.37,18.59,5.24-2.45,10.41-8.9,16.54-5.38,5.57,3.18,1.11,8.24,3.16,8.55-2.34,8.31-4.83,13.14-13.76,15.79.35-4.03,1.62-8.02.94-12.08-2.88,5.24-5.75,11.15-11.52,13.74q-.28-.46-.57-.92c5.52-19.33-1.22-2.25-8.73.18-6.48,2.11.68-2.67,0-7.81-1.22,3.02-13.91,11.04-14.68,8.36,2.56-3.96,2.85-9.64,3.72-12.45-.02-.68-.56.26-1.11.74-3.41,5.77-7.77,13.56-15.42,13.02-4.86-1.25.73-8.71,2.05-12.26.03-.11-.05-.26,0-.39-.03-4.55-8.99,10.54-11.34,11.52-5.66,2.39-4.7-8.55-4.66-11.52-2.34,3.15-2.7,7.17-3.9,10.78-3.87-.56-3.87-5.06-5.01-8.55-1.34-4.13-.49-1.62-3.35,6.51q-1.39-.09-2.78-.19c-2.93-1.57-1.9-10.86-3.53-12.65-2.34,6.91-3.22,18.43-7.8,3.72-1.34-2.75-1.91-5.64-2.79-8.55q-.65,6.23-1.3,12.45c-7.77-.69-7.4-11.57-8.75-17.65q-1.48,6.88-2.96,13.74c-5.17-1.97-7.56-7.14-10.23-11.52.66-.17.91.71,1.48.19.69-.62,6.23-14.79,7.99-16.91q-.19,7.25-.37,14.5,5.58-7.25,11.15-14.5c1.59,7.65,4.63,15.22,6.14,22.86.03.2-1.16,3.32.74,1.85,1.34-6.17,2.78-12.35,2.04-18.76,5.72,2.27,2.78,10.09,2.42,14.85,1.5-2.68,4.44-5.15,6.14-7.81.31.2-.02,1.19.56,2.61,2.58,6.46,7.43,5.95,13,7.81-.43-7.3,1.94-4.1,4.46-8.36-.31-1.17-12.02-3.5-18.96-14.5q1.13-.65,2.24-1.3c-3.38-3.9-9.5-13.91-11.15-18.59-2.55-7.25-3.35-16.15-2.61-23.78.31-3.15.96-6.65,1.87-9.67.82-2.73,2.21-6.12,3.72-8.55.09-.14.99-.35,1.11-.56.32-.48,1.53-3.13,1.87-3.53,1.64-1.96,5.98-5,7.99-7.44q.09.37.19.74c-15.21,13.82-17.94,39.72-6.32,56.5,19.06,27.55,63.13,28.55,84.74,3.53,19.45-22.52,10.64-63.35-27.5-70.8.59-2.34-9.96-.54-8.18-3.35,18.77.94,25.22,7.79,26.58,7.44.69-.19.45-1.1.56-1.5,2.9,4.55,8.38,7.26,11.89,11.71.17.22-.88.02,2.61,4.47.48.62.31,2.79,2.73,3.46-.63.26,1.47,6.4,2.47,9.36.66,1.96.89,4.69,1.85,6.31,1.14,10.04-.15,18.05-4.46,27.13Z"/>
        <path class="cls-9" d="M724.18,495.96c3.04,2.47,7.53,8.89,0,4.83.06-.67,1.06-.17,1.12-.56.05-.4-5.7-3.96-6.5-4.65-10.13-8.6,2.5-1.97,5.39.37Z"/>
        <path class="cls-9" d="M724.18,501.16c-.04,1.58,10.19,14.11.37,6.69,1.03-1.55-7.06-8.61-5.02-8.92l4.65,2.23Z"/>
        <g>
          <path class="cls-9" d="M684.05,586.65c-.52,3.67-.65,7.73-2.61,10.95q-.19-1.2-.37-2.41c0-.49.28-4.49-.37-4.46-3.72,4.41-2.01,2.3-5.77,1.85-2.31-.28-2.11.32-4.64-.74-.08-.03.29-1.26-.74-.37-2.16,1.85-2.25,10.52-6.32,3.72q4.75-11.15,9.49-22.3,1.57,6.05,3.16,12.08c1.33,1.65.74-7.11,1.67-7.62q3.25,4.64,6.51,9.3Z"/>
          <path class="cls-9" d="M663.23,595.2c4.07,6.8,4.16-1.87,6.32-3.72-.03.37.05.76,0,1.12-.52,3.63-6.31,12.75-10.22,14.5-.99-.22-.93-10.93-.93-12.27.01-4.14.61-8.47.56-12.64,1.46,4.36,1.84,8.95,4.27,13.01Z"/>
          <path class="cls-9" d="M680.7,590.74c-2.14,4.42-6.31,11.86-10.78,12.82q.19-5.48.37-10.96v-.74c2.52,1.06,2.32.46,4.65.74,3.76.45,2.05,2.56,5.76-1.86Z"/>
          <path class="cls-6" d="M670.29,591.85v.74h-.74c.05-.36-.03-.75,0-1.12,1.03-.89.66.34.74.37Z"/>
        </g>
        <path class="cls-9" d="M720.09,556.17c-1.34-1.48-1.03,3.86-4.46,10.21-2.33,4.32-6.45,7.56-8.18,12.28q-.37-.19-.74-.39c-.86-7.11-.23.34-6.88,7.25q-.74-2.59-1.5-5.2c-.85,5.12-3.75,8.85-7.43,12.26-1.93-6.62-1.19,1.45-10.03,6.32-.56-.43.19-1.94.19-3.72q.19,1.2.37,2.41c1.96-3.22,2.08-7.28,2.61-10.95.14-1.02.97-3.38,1.11-5.03.69-8.19-1.11-14.87,3.35-.37,1.42,4.66.91,8.98,2.59,5.95,3.38-6.02,2.93-18.51,3.53-25.47q1.4,6.97,2.79,13.94c10.21-20.35,1-34.51,11.52-7.43,4.37-11.4-2.73-21.72-1.67-22.12,4.41,4.36,6.79,8.04,8.18,14.13.45-1.48,2.36-5.21,2.41-5.58.37-2.44-.34-4.7-.74-7.05-1.97-11.66-10.06-19.81,1.5-7.43.23.11,1.06.68,1.11.74,4.61,6.48,3.64,23.57.37,15.24Z"/>
        <g>
          <path class="cls-9" d="M548.38,418.65l9.66-3.35c.23,2.76.06,5.6-1.49,7.99.18.34,3.92-.77,4.46-.93-.66,1.43,1.68,1.28-1.49,1.67l1.49.56c-5.82,1.89-9.14,3.15-14.5,6.32-1.35-.72-1.56-1.47-1.67-1.49-1.41-.2-18.17,12.21-20.26,14.12-2.96-.89-5.39-2.86-8.18-4.09-17.06-27.23,27.19-43.51,28.43-13.75,1.4-1.9,3.39-4.66,3.53-7.06Z"/>
          <path class="cls-1" d="M558.04,415.3q-4.83,1.68-9.66,3.35c.26-4.41-3.13-10.91-6.51-13.74-12.9-10.89-35.32.65-38.84,15.79-3.49,15.01,7.2,16.06,13.37,18.77,2.79,1.22,5.23,3.19,8.19,4.09-.88.8-2.24,1.82-2.98,2.59-11.09,2.01-16.3-5.49-20.64-14.48-2.92.36-2.39,1.23-1.67,3.72-1.65,2.67-2.27,1.62-4.83.37-1.43-5.65-2.05-14.05,1.11-18.96.82-1.27,8.02-8.44,2.98-7.06,2.13-2.58,3.92-6.2,7.62-9.29,10.92-9.13,30.99-11.08,42.37-1.87,4.1,3.33,9.04,11.45,9.47,16.72Z"/>
          <path class="cls-9" d="M521.62,446.15c-1.57,1.64-3.52,4.1-4.84,5.95-2.65-.03-4.23.02-6.31,1.48.23-1.13-2.25-1.27-5.58-3.35-5.15-3.22-8.9-8.61-10.4-14.48,2.56,1.25,3.18,2.3,4.83-.37-.73-2.48-1.25-3.36,1.67-3.72,4.33,8.99,9.55,16.49,20.64,14.48Z"/>
          <path class="cls-9" d="M495.6,416.79l-.19-.74c-10.39,7.67.51-3.12,3.16-6.32,5.04-1.37-2.15,5.79-2.97,7.06Z"/>
          <path class="cls-10" d="M548.38,418.65c-.15,2.4-2.13,5.16-3.53,7.06-1.24-29.76-45.5-13.47-28.43,13.75-6.17-2.72-16.87-3.76-13.38-18.77,3.52-15.15,25.94-26.69,38.84-15.8,3.37,2.85,6.77,9.34,6.5,13.75Z"/>
        </g>
        <g>
          <path class="cls-9" d="M702.62,437.98c-1.48,1.75-6.55,5.11-8.92,6.32-4.72-4.12-12.34-11.09-17.84-12.08l.37.56c-4.61-3.26-11.03-6.03-16.35-7.81l.19-.74c2,1.51,2.16,1.4,2.04-.74-.04-.82-1.15-2.31-.74-7.81.88,2.02,6.07,1.76,9.29,2.23.29,3.37,4.8,13.1,3.35,2.42,5.03-16.89,30.99-12.43,32.34,4.46.35,4.35-.86,9.81-3.72,13.19Z"/>
          <path class="cls-1" d="M716.75,406.76c.1.16-.71.44,1.12,3.53.97,1.64,2.98,4.71,4.46,5.76,2.87,6.14,2.64,11.84,1.12,18.21-.07-.83-.71.65-.74.74-.81-.72-1.88-1.45-2.6-2.23-.22-.24-.12-1.97-.93-1.86-5.84,8.25-10.7,16.19-21.74,17.1-1.49-1.31-2.74-2.87-3.72-3.72,2.37-1.21,7.44-4.57,8.92-6.32,21.89-.84,13.9-25.89-.19-33.82-16.15-9.09-32.91.51-31.78,13.75-3.22-.47-8.41-.21-9.29-2.23,2.22-30.31,43.5-28.46,55.38-8.92Z"/>
          <path class="cls-9" d="M722.32,416.05c-1.48-1.05-3.49-4.12-4.46-5.76-1.82-3.09-1.02-3.37-1.12-3.53,5.1.88,5.8,6.07,8.18,10.22.47.9-2.16-.62-2.6-.93Z"/>
          <path class="cls-10" d="M702.62,437.98c2.86-3.39,4.06-8.85,3.72-13.19-1.35-16.89-27.31-21.35-32.34-4.46,1.45,10.68-3.06.95-3.35-2.42-1.13-13.24,15.63-22.84,31.78-13.75,14.09,7.93,22.07,32.98.19,33.82Z"/>
          <g>
            <path class="cls-9" d="M720.09,432.77c-1.57,8.02-7.3,11.1-4.65,14.12,3.94-3.36,5.46-7.37,7.25-11.89.04-.1.67-1.57.74-.74-1.84,7.65-8.63,16.93-16.73,18.58-5.32,1.09-5.25-1.26-9.29-4.83,11.04-.91,15.91-8.85,21.74-17.1.81-.12.71,1.62.93,1.86Z"/>
            <path class="cls-9" d="M722.7,435c-1.78,4.52-3.31,8.53-7.25,11.89-2.66-3.02,3.08-6.1,4.65-14.12.73.78,1.79,1.51,2.6,2.23Z"/>
          </g>
        </g>
        <g>
          <g>
            <path class="cls-1" d="M662.11,423.48c.11,2.14-.04,2.26-2.04.74l-.19.74c-29.69-9.91-69.15-10.03-98.87-.37l-1.49-.56c3.17-.39.82-.24,1.49-1.67,34.15-10.26,67.1-9.88,101.1,1.12Z"/>
            <g>
              <path class="cls-10" d="M707.46,508.79c-1,8.04-13.57,21.93-16.92,23.97-2.33,1.42-6.17,1.56-8.92,3.35-1.5.97-13.02,15.16-22.49,18.94,4.3-9.09,5.6-17.09,4.46-27.13,2.99,5.07,11.15,3.99,14.13-.56,6.56-10-9.32-15.95-14.13-9.28-.74,1.02-.76,3.61-1.85,3.53-1-2.96-3.1-9.1-2.47-9.36.06-.03.14-.02.23.06,15.55-3.87,12.83-34.17-3.53-34.94-11.82-.56-12.8,11.17-13.93,15.24-.11.4.14,1.31-.56,1.5-1.36.35-7.8-6.49-26.58-7.44-9.19-.46-18.85.42-27.69,2.98-3.35.96-6.42,3.1-9.86,3.72-1.4-16.69-18.86-20.93-25.27-10.04-1.11,1.87-2.07,4.86-2.24,7.06-1.05-.28-1.22,3.42-1.11,5.75.31,6.77,3.66,17.26,12.26,15.42-1.51,2.42-2.9,5.82-3.72,8.55-2.9-4.84-10.5-6.19-15.05-3.33-7.08,4.43-.68,20.59,13.19,13-.74,7.63.06,16.53,2.61,23.78-10.57-5.15-22.04-19.5-30.29-23.42-.88-.42-9.44-.74-15.05-11.34-6.08-11.49-1.4-30.71,2.24-42.74,5.52-18.2,14.81-35.21,31.59-45.16,5.35-3.16,8.68-4.43,14.5-6.31,29.72-9.66,69.16-9.55,98.86.37,5.34,1.77,11.75,4.53,16.37,7.81,5.04,3.58,11.63,11.26,14.85,16.54,7.31,11.95,18.02,46,16.37,59.48Z"/>
              <path class="cls-9" d="M561.2,449.13c10.06-1.1,22.31,5.01,19.51,10.96-2.59,4.68-7.81-4.52-21.74-1.3-10.47,2.42-13.55,12.51-16.54,6.13.89-8.03,11.33-14.99,18.77-15.8Z"/>
              <path class="cls-9" d="M650.78,449.13c10.21-1.08,24.65,5.78,24.72,16.91-2.5,4.07-7.17-6.33-18.77-7.62-13.27-1.48-16.03,6.94-18.77,1.3-1.26-5.65,8.47-10.13,12.82-10.59Z"/>
            </g>
            <path class="cls-5" d="M557.3,520.11c-.91,3.02-1.56,6.52-1.87,9.67-13.87,7.59-20.27-8.58-13.19-13,4.55-2.85,12.15-1.51,15.05,3.33Z"/>
          </g>
          <path class="cls-5" d="M677.72,527.36c-2.98,4.55-11.14,5.63-14.13.56-.96-1.62-1.19-4.35-1.85-6.31,1.1.08,1.11-2.51,1.85-3.53,4.81-6.66,20.68-.71,14.13,9.28Z"/>
          <g>
            <g>
              <g>
                <path class="cls-2" d="M563.24,506.92q.39.28.76.56c-.34.4-1.54,3.05-1.87,3.53-.12.2-1.02.42-1.11.56-8.61,1.84-11.95-8.65-12.26-15.42-.11-2.33.06-6.03,1.11-5.75-.62,7.99,4.47-.91,2.24-7.06,6.4-10.89,23.86-6.65,25.27,10.04-5.35,2.78-10.66,8.64-14.13,13.56Z"/>
                <path class="cls-7" d="M549.87,490.38c.17-2.2,1.13-5.19,2.23-7.06,2.25,6.15-2.84,15.05-2.23,7.06Z"/>
                <path class="cls-12" d="M554.88,496.7c6.59,4-.35,12.15-.93,1.3l.93-1.3Z"/>
              </g>
              <g>
                <path class="cls-2" d="M659.51,512.31c-.08-.02-.15-.03-.23-.06-2.42-.66-2.25-2.84-2.73-3.46-3.49-4.46-2.44-4.26-2.61-4.47-3.52-4.44-8.99-7.16-11.89-11.71,1.13-4.07,2.11-15.79,13.93-15.24,16.37.77,19.08,31.07,3.53,34.94Z"/>
                <path class="cls-4" d="M661.18,499.68c6.81-.88-3.22,12.79-6.5,5.02,0-.56,5.58-4.9,6.5-5.02Z"/>
                <path class="cls-7" d="M662.3,483.69c.45-.36,5.69,3.31,5.39,8.36-3.14,5.98-6.17-7.74-5.39-8.36Z"/>
              </g>
            </g>
            <g>
              <path class="cls-9" d="M659.51,512.31c-.08-.02-.15-.03-.23-.06.06-.03.14-.02.23.06Z"/>
              <path class="cls-9" d="M623.09,490.02c-15.75-3.08-33.39-1.6-46.83,7.81-1.36.94-2.87,1.85-4.09,2.96q-.09-.37-.19-.74c-2.01,2.44-6.35,5.48-7.99,7.44q-.37-.28-.76-.56c3.47-4.92,8.78-10.78,14.13-13.56,3.44-.62,6.51-2.76,9.86-3.72,8.84-2.56,18.49-3.44,27.69-2.98-1.79,2.81,8.76,1,8.18,3.35Z"/>
              <path class="cls-11" d="M571.06,504.32c-10.5,12.74-13.13,31.28-7.06,46.46.88,2.21,4.07,5.34,1.85,6.51-11.61-16.78-8.88-42.68,6.32-56.5,1.22-1.11,2.73-2.02,4.09-2.96.68,2.39-2.47,3.18-5.2,6.49Z"/>
              <g>
                <path class="cls-13" d="M650.59,560.82c-21.61,25.02-65.68,24.02-84.74-3.53,2.22-1.17-.97-4.3-1.85-6.51-6.06-15.18-3.44-33.72,7.06-46.46,2.73-3.32,5.88-4.1,5.2-6.49,13.43-9.41,31.08-10.89,46.83-7.81,38.15,7.45,46.95,48.28,27.5,70.8Z"/>
                <g>
                  <path class="cls-15" d="M604.32,495.22c22.94-1.78,43.28,8.59,16.35,27.13-3.95,2.72-9.65,4.87-9.85,5.39-.42,1.07-2.24,17.76,5.76,20.63,12.6,4.53,18.6-8.51,19.7-8.92,7.6-2.84-1.22,18.18-18.58,14.87-4.09-.78-8.76-5.26-9.29-5.2-.84.09-4.68,6.91-15.24,5.58-9.78-1.23-17.42-16.26-11.15-14.87,1.12.25,6.83,12.97,19.33,8.55,8.98-3.18,6.07-13.28,6.5-20.63-26.71-11.25-33.25-30.21-3.53-32.52Z"/>
                  <path class="cls-8" d="M603.57,504.51c7.47-.78,23.45.34,17.47,4.09-1.22.77-22.18,1.24-23.79.74-3.12-.97-.6-4.11,6.32-4.83Z"/>
                </g>
              </g>
            </g>
          </g>
        </g>
      </g>
    </g>
  </g>
</svg>